<?xml version="1.0" standalone="no"?>
<!DOCTYPE svg PUBLIC "-//W3C//DTD SVG 20010904//EN"
 "http://www.w3.org/TR/2001/REC-SVG-20010904/DTD/svg10.dtd">
<svg version="1.0" xmlns="http://www.w3.org/2000/svg"
 width="573.000000pt" height="424.000000pt" viewBox="0 0 573.000000 424.000000"
 preserveAspectRatio="xMidYMid meet">

<g transform="translate(0.000000,424.000000) scale(0.100000,-0.100000)"
fill="#000000" stroke="none">
<path d="M2824 3608 c-42 -51 -125 -149 -185 -218 -59 -69 -161 -191 -226
-271 -65 -80 -199 -239 -298 -354 -99 -114 -193 -225 -210 -246 -16 -21 -36
-38 -43 -39 -7 0 -67 54 -132 120 l-120 121 -177 -183 c-98 -100 -275 -283
-393 -405 l-215 -222 -257 0 -258 -1 0 -65 0 -65 2605 0 2605 0 0 70 0 70
-257 1 -258 1 -134 141 c-425 448 -654 677 -675 677 -12 0 -37 -16 -57 -36
-18 -20 -60 -59 -92 -86 l-58 -51 -66 64 c-35 35 -111 120 -168 189 -57 69
-139 161 -184 204 -74 74 -82 79 -104 69 -24 -11 -31 -5 -133 110 -217 242
-337 383 -376 440 -21 31 -43 57 -48 57 -4 0 -43 -42 -86 -92z m91 -230 c3
-40 6 -147 5 -238 -1 -91 -2 -171 -1 -177 1 -7 28 -26 61 -43 71 -36 100 -76
100 -137 0 -40 -5 -47 -92 -132 l-92 -90 -35 29 c-20 15 -54 47 -76 69 -21 23
-43 41 -47 41 -4 0 -17 -18 -28 -40 -15 -30 -20 -58 -20 -122 0 -118 3 -126
56 -134 27 -4 59 -18 83 -38 48 -38 319 -279 416 -370 l70 -65 -867 -1 c-478
0 -868 3 -868 6 0 10 98 133 184 230 45 50 117 135 161 189 44 54 112 133 151
174 39 42 82 89 95 104 l24 28 -8 -141 c-6 -99 -6 -145 2 -154 17 -20 59 -7
96 30 27 26 35 45 44 101 7 37 25 111 41 163 15 52 36 124 46 160 21 79 45
129 83 172 16 18 41 51 55 73 58 85 328 385 347 385 3 0 10 -33 14 -72z m580
-603 c8 -61 18 -163 22 -227 3 -64 9 -121 12 -127 4 -5 38 -18 76 -28 97 -26
107 -44 77 -145 -25 -84 -22 -108 16 -108 33 0 73 31 212 165 141 136 266 233
282 217 6 -6 24 -59 40 -118 40 -149 79 -238 138 -314 97 -124 110 -143 110
-157 0 -11 -81 -13 -461 -13 l-462 0 -126 124 c-69 68 -183 175 -252 239 -69
64 -137 131 -150 148 l-24 31 180 178 c197 195 275 264 287 252 4 -4 14 -57
23 -117z m-1865 -332 c33 -88 42 -149 27 -183 -6 -15 -70 -96 -142 -178 l-130
-151 -168 0 c-151 -1 -167 1 -159 15 13 23 532 554 542 554 5 0 18 -26 30 -57z"/>
<path d="M534 1492 c-128 -45 -209 -117 -261 -228 -25 -53 -28 -70 -28 -164 0
-93 3 -111 27 -162 38 -82 72 -123 144 -174 82 -59 155 -84 241 -84 132 1 237
58 320 174 73 103 84 130 90 217 8 104 -11 186 -57 257 -46 71 -87 107 -170
146 -56 26 -79 31 -160 33 -73 3 -107 -1 -146 -15z m212 -176 c127 -59 177
-212 109 -331 -46 -80 -107 -115 -200 -115 -94 0 -153 35 -203 119 -22 37 -26
58 -26 115 -1 81 14 115 70 170 68 66 164 82 250 42z"/>
<path d="M1330 1095 l0 -405 265 0 265 0 0 90 0 90 -175 0 -175 0 0 315 0 315
-90 0 -90 0 0 -405z"/>
<path d="M1930 1492 c0 -4 14 -24 30 -44 17 -20 50 -67 73 -105 103 -165 120
-192 157 -255 l40 -67 0 -165 0 -166 80 0 80 0 0 163 c0 183 0 184 100 332 26
39 56 88 68 110 11 22 48 73 81 112 34 40 61 77 61 83 0 6 -41 10 -105 10 -58
0 -105 -4 -105 -8 0 -5 -17 -35 -39 -68 -21 -32 -60 -94 -86 -138 l-48 -79
-19 39 c-11 22 -52 87 -91 146 l-72 108 -102 0 c-57 0 -103 -3 -103 -8z"/>
<path d="M2900 1095 l0 -405 80 0 80 0 1 218 0 217 65 -130 c36 -71 71 -134
78 -140 12 -9 18 -20 61 -102 10 -18 21 -33 26 -33 5 0 9 -7 9 -15 0 -8 9 -15
20 -15 16 0 34 28 88 138 37 75 72 151 79 167 7 17 28 52 48 79 l35 48 0 -216
0 -216 90 0 90 0 0 405 0 405 -64 0 -64 0 -64 -87 c-69 -94 -96 -137 -169
-266 -29 -53 -52 -83 -65 -85 -14 -2 -36 24 -92 110 -41 62 -106 160 -146 218
l-73 105 -56 3 -57 3 0 -406z"/>
<path d="M4060 1095 l0 -405 90 0 90 0 0 125 0 125 114 0 c109 0 117 1 177 33
103 53 157 152 146 270 -7 83 -47 158 -105 200 -73 53 -96 57 -313 57 l-199 0
0 -405z m387 219 c67 -50 79 -123 28 -181 -22 -27 -28 -28 -129 -31 l-106 -4
0 122 0 122 89 -4 c72 -2 95 -7 118 -24z"/>
<path d="M4940 1095 l0 -405 285 0 285 0 0 85 0 85 -195 0 -195 0 0 80 0 80
170 0 170 0 0 80 0 80 -170 0 -170 0 0 75 0 75 195 0 195 0 0 85 0 85 -285 0
-285 0 0 -405z"/>
</g>
</svg>
